<svg width="100" height="32" viewBox="0 0 100 32" fill="none" xmlns="http://www.w3.org/2000/svg">
<path d="M23.4515 31.2631H8.31173C4.12419 31.2631 0.726814 27.8424 0.726814 23.6215V8.36504C0.726814 4.14416 4.12085 0.72345 8.31173 0.72345H23.4515C27.6391 0.72345 31.0331 4.14416 31.0331 8.36504V23.6215C31.0331 27.8424 27.6391 31.2631 23.4515 31.2631Z" fill="white"/>
<path d="M23.7549 32H8.25172C3.70077 32 0 28.2992 0 23.7516V8.24839C0 3.70077 3.70077 0 8.25172 0H23.7549C28.3026 0 32.0033 3.70077 32.0033 8.24839V23.7516C32.0033 28.2992 28.3026 32 23.7549 32ZM8.25172 0.966869C4.23755 0.966869 0.970203 4.23422 0.970203 8.24839V23.7516C0.970203 27.7658 4.23755 31.0298 8.25172 31.0298H23.7549C27.7691 31.0298 31.0331 27.7624 31.0331 23.7516V8.24839C31.0331 4.23422 27.7658 0.966869 23.7549 0.966869H8.25172Z" fill="#E8E9EA"/>
<path d="M13.9629 6.05458L14.1663 5.94455C15.3632 5.30775 16.8102 5.34776 17.9671 6.05458V12.6726L23.6583 9.36193L24.115 9.62532C25.1852 10.2488 25.7987 11.4357 25.682 12.6693L20.0308 16.1067L13.9596 12.4559V6.05458H13.9629Z" fill="#41BABF"/>
<path d="M13.9662 25.9454L14.1696 26.0554C15.3665 26.6922 16.8135 26.6522 17.9704 25.9454V19.324L23.6616 22.6347L24.1184 22.3713C25.1886 21.7479 25.802 20.561 25.6854 19.3274L20.0342 16.1134L13.9662 19.5374V25.9454Z" fill="#F3AC40"/>
<path d="M8.47843 9.15521L8.27839 9.27524C7.11482 9.97205 6.40467 11.2323 6.41134 12.5893L12.0825 16.0033L6.31465 19.1706L6.30798 19.6974C6.28798 20.9343 6.99146 22.0746 8.10836 22.6113L13.9696 19.544L13.9662 12.4626L8.47843 9.15521Z" fill="#EB8434"/>
<path d="M13.9629 12.4626L13.9662 19.5441L20.0342 16.1133L13.9629 12.4626Z" fill="#4B555E"/>
<path d="M41.642 11.4824C43.1323 11.4824 44.3326 11.6391 45.2494 11.9491C46.1663 12.2592 46.8364 12.8293 47.2632 13.6595C47.6899 14.4897 47.9033 15.6899 47.9033 17.2569V22.9347H44.5293L44.4126 21.8645H44.3426C44.0492 22.2513 43.5891 22.5613 42.969 22.7947C42.3488 23.0281 41.542 23.1448 40.5485 23.1448C37.8646 23.1448 36.521 21.8879 36.521 19.374C36.521 18.3038 36.8744 17.4603 37.5812 16.8501C38.288 16.2367 39.4016 15.93 40.9219 15.93H44.3659C44.2559 15.2798 43.9792 14.8397 43.5291 14.6163C43.079 14.393 42.3122 14.2796 41.2253 14.2796C40.5418 14.2796 39.8716 14.3296 39.2115 14.4296C38.5514 14.5297 37.9746 14.643 37.4778 14.7664L37.4078 14.7197L37.4311 12.0191C37.7412 11.9258 38.138 11.8358 38.6181 11.7524C39.0982 11.6657 39.6083 11.6024 40.1417 11.5557C40.6752 11.5057 41.1753 11.4824 41.642 11.4824ZM41.502 20.3976C42.4655 20.3976 43.1857 20.2775 43.6658 20.0375C44.1459 19.7974 44.3959 19.414 44.4093 18.8839V18.3005H41.7787C41.0952 18.3005 40.6185 18.3971 40.3484 18.5905C40.0784 18.7839 39.9417 19.0439 39.9417 19.3707C39.9417 19.7574 40.0817 20.0275 40.3618 20.1742C40.6385 20.3242 41.0186 20.3976 41.502 20.3976Z" fill="#4B555E"/>
<path d="M49.8337 19.7241C51.044 20.0641 52.3876 20.2375 53.8612 20.2375C54.5747 20.2375 55.1081 20.2142 55.4682 20.1675C55.825 20.1208 56.065 20.0441 56.1884 19.9341C56.3117 19.8241 56.3751 19.6774 56.3751 19.4907C56.3751 19.2273 56.2784 19.0639 56.085 19.0006C55.8916 18.9372 55.5082 18.8539 54.9314 18.7439L53.0944 18.3938C51.9141 18.1604 51.0673 17.7937 50.5472 17.2869C50.0271 16.7834 49.767 16.0266 49.767 15.0164C49.767 13.6495 50.1738 12.7193 50.9873 12.2225C51.8008 11.7257 53.1011 11.479 54.8848 11.479C55.955 11.479 56.8985 11.5357 57.712 11.6524C58.5255 11.7691 59.2057 11.9124 59.7491 12.0825L59.7024 14.8997L59.6324 14.9697C58.3755 14.5663 57.0019 14.3663 55.5116 14.3663C54.7814 14.3663 54.2746 14.4163 53.9879 14.5163C53.7012 14.6163 53.5578 14.8164 53.5578 15.1098C53.5578 15.2665 53.6012 15.3898 53.6845 15.4832C53.7712 15.5765 53.9679 15.6665 54.278 15.7499C54.588 15.8366 55.0781 15.9399 55.7449 16.0633L57.4453 16.39C58.3922 16.5901 59.089 16.9268 59.5391 17.3902C59.9892 17.857 60.2125 18.5938 60.2125 19.6007C60.2125 20.4842 60.0492 21.1877 59.7224 21.7078C59.3957 22.2279 58.8489 22.5947 58.0821 22.8147C57.3153 23.0314 56.2551 23.1414 54.9048 23.1414C53.8812 23.1414 52.9377 23.0914 52.0775 22.9914C51.2173 22.8914 50.4438 22.7714 49.7604 22.6313V19.7674L49.8337 19.7241Z" fill="#4B555E"/>
<path d="M62.423 19.5374V14.6497H61.0261V11.6224H62.7731L63.4699 8.85187H66.1471V11.6224H68.6843V14.6497H66.1471V18.7239C66.1471 19.1573 66.2005 19.4574 66.3105 19.6208C66.4205 19.7841 66.6672 19.8642 67.054 19.8642C67.3007 19.8642 67.5674 19.8542 67.8441 19.8308C68.1242 19.8075 68.4043 19.7808 68.681 19.7508L68.751 19.7975V22.8214C68.0075 23.0382 67.0206 23.1482 65.7937 23.1482C64.5668 23.1482 63.6999 22.8681 63.1865 22.3113C62.6797 21.7479 62.423 20.8244 62.423 19.5374Z" fill="#4B555E"/>
<path d="M74.5722 22.9347H70.8481V11.5991H73.8754L74.1788 13.9262H74.2488C74.3888 13.056 74.7222 12.4326 75.249 12.0525C75.7758 11.6724 76.5593 11.4824 77.5995 11.4824C78.0196 11.4824 78.3997 11.5024 78.7397 11.539C79.0798 11.5791 79.3665 11.6124 79.5999 11.6424V15.2732L79.5532 15.3198C79.3065 15.2565 79.0231 15.2031 78.7031 15.1565C78.3863 15.1098 78.0229 15.0864 77.6195 15.0864C77.046 15.0864 76.5293 15.1798 76.0725 15.3665C75.6157 15.5532 75.259 15.9133 75.0023 16.4501C74.7456 16.9868 74.6189 17.7803 74.6189 18.8372L74.5722 22.9347Z" fill="#4B555E"/>
<path d="M85.5345 11.4824C87.0248 11.4824 88.225 11.6391 89.1419 11.9491C90.0588 12.2592 90.7289 12.8293 91.1557 13.6595C91.5824 14.4897 91.7958 15.6899 91.7958 17.2569V22.9347H88.4217L88.3051 21.8645H88.235C87.9416 22.2513 87.4816 22.5613 86.8614 22.7947C86.2413 23.0281 85.4345 23.1448 84.4409 23.1448C81.757 23.1448 80.4134 21.8879 80.4134 19.374C80.4134 18.3038 80.7668 17.4603 81.4736 16.8501C82.1804 16.2367 83.294 15.93 84.8143 15.93H88.2584C88.1484 15.2798 87.8716 14.8397 87.4215 14.6163C86.9714 14.393 86.2046 14.2796 85.1177 14.2796C84.4342 14.2796 83.7641 14.3296 83.104 14.4296C82.4438 14.5297 81.867 14.643 81.3703 14.7664L81.3003 14.7197L81.3236 12.0191C81.6337 11.9258 82.0304 11.8358 82.5105 11.7524C82.9906 11.6657 83.5007 11.6024 84.0342 11.5557C84.5676 11.5057 85.071 11.4824 85.5345 11.4824ZM85.3945 20.3976C86.358 20.3976 87.0781 20.2775 87.5582 20.0375C88.0383 19.7974 88.2884 19.414 88.3017 18.8839V18.3005H85.6712C84.9877 18.3005 84.5109 18.3971 84.2409 18.5905C83.9708 18.7839 83.8341 19.0439 83.8341 19.3707C83.8341 19.7574 83.9742 20.0275 84.2542 20.1742C84.5343 20.3242 84.9144 20.3976 85.3945 20.3976Z" fill="#4B555E"/>
</svg>
